<svg width="16" height="17" viewBox="0 0 16 17" fill="none" xmlns="http://www.w3.org/2000/svg">
<path d="M2.10003 6.56521C2.29538 6.80939 2.44189 7.10242 2.53957 7.39544C2.63724 7.68846 2.68608 8.03032 2.68608 8.37218C2.68608 8.71404 2.63724 9.0559 2.53957 9.34893C2.44189 9.64195 2.29538 9.93497 2.10003 10.1792C1.85585 10.521 1.90469 11.0094 2.24655 11.2536C2.58841 11.4978 3.07678 11.4489 3.32096 11.1071C3.61399 10.7164 3.80934 10.3257 4.00468 9.8373C4.20003 9.34893 4.24887 8.86055 4.24887 8.37218C4.24887 7.88381 4.1512 7.39544 4.00468 6.90707C3.85817 6.46753 3.61399 6.028 3.32096 5.6373C3.07678 5.29544 2.58841 5.2466 2.24655 5.49079C1.90469 5.73497 1.85585 6.22335 2.10003 6.56521Z" fill="#D3E1F5"/>
<path d="M4.78608 5.14892C5.37213 6.07683 5.71399 7.20009 5.71399 8.37218C5.71399 9.54427 5.37213 10.6675 4.78608 11.5954C4.54189 11.9373 4.6884 12.4257 5.03027 12.6699C5.42096 12.914 5.8605 12.7675 6.10468 12.4257C6.83724 11.2536 7.27678 9.88613 7.27678 8.37218C7.27678 6.90706 6.83724 5.49078 6.10468 4.31869C5.8605 3.97683 5.37213 3.83032 5.03027 4.07451C4.6884 4.31869 4.54189 4.75823 4.78608 5.14892Z" fill="#D3E1F5"/>
<path d="M7.61863 3.68381C8.44887 5.05125 8.8884 6.66288 8.8884 8.37218C8.8884 10.0815 8.40003 11.6931 7.61863 13.0606C7.42328 13.4513 7.52096 13.8908 7.91166 14.135C8.30235 14.3303 8.74189 14.2326 8.98607 13.8419C9.96282 12.2303 10.5 10.3745 10.5 8.37218C10.5 6.36986 9.96282 4.51404 8.98607 2.90241C8.79072 2.51172 8.30235 2.41404 7.91166 2.60939C7.52096 2.85358 7.42328 3.29311 7.61863 3.68381Z" fill="#D3E1F5"/>
<path d="M10.4512 2.21869C11.4768 4.02567 12.1116 6.12567 12.1116 8.37218C12.1116 10.6187 11.5256 12.7187 10.4512 14.5257C10.2558 14.9164 10.3535 15.3559 10.7442 15.6001C11.1349 15.7954 11.5744 15.6978 11.8186 15.3071C12.9907 13.2559 13.6744 10.9117 13.6744 8.37218C13.6744 5.83265 12.9907 3.48846 11.8186 1.4373C11.6233 1.0466 11.1349 0.948926 10.7442 1.14427C10.3535 1.33962 10.2558 1.828 10.4512 2.21869Z" fill="#D3E1F5"/>
</svg>
