<svg width="316" height="284" viewBox="0 0 316 284" fill="none" xmlns="http://www.w3.org/2000/svg">
<g clip-path="url(#clip0_0_231)">
<path d="M180.019 251.248C177.834 247.838 174.876 245.342 171.158 244.408C167.915 243.594 164.581 243.732 161.284 243.761L119.605 244.119C116.036 244.15 112.613 247.597 112.779 251.728C112.944 255.824 115.779 259.37 119.605 259.337C131.814 259.232 144.023 259.127 156.232 259.022C159.111 258.998 161.991 258.94 164.869 258.95C165.516 258.953 166.16 258.991 166.805 258.999C166.962 259.001 167.075 258.999 167.154 258.995C167.174 259.002 167.191 259.008 167.217 259.016C167.554 259.12 167.9 259.191 168.239 259.289C168.12 259.292 168.458 259.528 168.628 259.608C168.652 259.659 168.702 259.75 168.785 259.891C168.901 260.133 169.244 260.87 169.258 260.847C169.775 262.301 170.2 263.794 170.533 265.314C171.326 268.665 171.5 269.366 171.615 272.51C171.759 276.482 174.651 280.308 178.441 280.119C182.015 279.941 185.422 276.77 185.267 272.51C185.006 265.332 183.876 257.268 180.019 251.248Z" fill="#E6E6E6"/>
<path d="M122.055 268.419C121.272 263.131 120.505 257.839 119.707 252.554C118.897 247.192 117.243 242.283 113.5 238.764C112.5 237.824 111.463 236.946 110.421 236.071C110.055 235.763 109.69 235.455 109.328 235.141C109.306 235.122 109.292 235.11 109.274 235.094C109.234 235.056 109.186 235.01 109.122 234.95C107.562 233.478 106.054 231.941 104.618 230.307C103.343 228.855 102.124 227.342 100.96 225.767C100.669 225.374 100.382 224.977 100.099 224.577C100.05 224.508 99.7877 224.13 99.6148 223.883C99.454 223.636 99.16 223.19 99.1107 223.112C98.7796 222.59 98.4545 222.064 98.1353 221.532C95.9611 217.901 94.0785 214.063 92.5092 210.064C92.3536 209.667 92.2017 209.268 92.0534 208.867C92.0137 208.744 91.9622 208.587 91.8939 208.377C91.5776 207.408 91.262 206.44 90.9729 205.459C90.3586 203.376 89.8304 201.261 89.3884 199.117C89.1699 198.057 88.9732 196.993 88.7983 195.923C88.708 195.373 88.6237 194.822 88.5451 194.269C88.5322 194.177 88.4555 193.581 88.4104 193.245C88.377 192.906 88.3149 192.307 88.3066 192.214C88.2566 191.658 88.2123 191.1 88.1735 190.542C88.0862 189.287 88.0272 188.029 87.9965 186.769C87.944 184.53 87.9799 182.292 88.1044 180.053C88.1752 178.796 88.276 177.541 88.4002 176.289C88.4077 176.212 88.4135 176.151 88.4189 176.096C88.4264 176.04 88.4352 175.976 88.4456 175.897C88.5375 175.205 88.6341 174.514 88.7422 173.826C89.1517 171.21 89.6842 168.62 90.3375 166.067C90.6469 164.86 90.9829 163.662 91.3456 162.474C91.5073 161.947 91.6741 161.422 91.846 160.898C91.8347 160.932 92.3503 159.464 92.3572 159.415C94.4029 154.027 97.7489 149.115 97.7535 142.995C97.7566 138.851 94.6116 134.882 90.9273 135.073C89.0904 135.15 87.352 136.019 86.0786 137.497C84.8052 138.975 84.0963 140.946 84.1011 142.995C84.1011 143.088 84.1007 143.167 84.1005 143.244C84.0661 143.373 84.0374 143.481 84.0115 143.576C83.6126 144.543 83.1239 145.461 82.686 146.403C81.4869 148.982 80.4634 151.646 79.4912 154.349C77.8996 158.751 76.6813 163.309 75.8523 167.964C74.0504 178.163 73.9105 188.641 75.4394 198.895C78.0861 216.878 86.8142 234.092 98.9484 245.663C100.001 246.667 101.08 247.637 102.169 248.588C102.62 248.981 103.074 249.368 103.531 249.751C103.746 249.933 104.641 250.718 104.247 250.338C105.093 251.142 105.449 251.547 105.666 252.14C105.698 252.277 105.741 252.462 105.799 252.716C105.952 253.384 106.097 254.051 106.218 254.729C107.274 260.65 108.008 266.671 108.891 272.631C109.497 276.726 114.02 279.391 117.288 278.164C121.092 276.735 122.705 272.807 122.055 268.419Z" fill="#E6E6E6"/>
<path d="M180.71 283.778C177.843 283.786 175.09 282.526 173.056 280.275C171.021 278.024 169.87 274.965 169.856 271.769V263.09C161.704 264.107 133.787 263.871 125.785 262.438V271.422C125.763 274.615 124.61 277.67 122.577 279.919C120.544 282.168 117.796 283.431 114.931 283.431C112.066 283.431 109.318 282.168 107.285 279.919C105.252 277.67 104.099 274.615 104.077 271.422V253.782C93.2389 247.071 84.2035 237.257 77.9037 225.353C71.6039 213.449 68.2678 199.887 68.2397 186.067C68.2397 162.369 77.8745 140.262 94.6737 125.415C105.596 115.729 118.867 109.904 132.782 108.688C134.671 108.523 136.571 108.439 138.43 108.439C144.98 108.439 174.532 109.567 181.946 111.945L198.853 93.2443C199.102 92.9657 199.419 92.7758 199.765 92.699C200.11 92.6222 200.469 92.662 200.794 92.8131C201.122 92.9585 201.403 93.211 201.6 93.5375C201.796 93.864 201.9 94.2492 201.897 94.6425V97.6158L205.189 93.9814C205.437 93.7024 205.754 93.5123 206.1 93.4354C206.445 93.3585 206.803 93.3982 207.129 93.5495C207.457 93.6948 207.738 93.9473 207.935 94.274C208.132 94.6006 208.236 94.986 208.232 95.3795V128.605C216.716 137.131 223.182 147.857 227.057 159.834C230.933 171.811 232.098 184.668 230.449 197.267C228.8 209.866 224.389 221.817 217.606 232.061C210.823 242.305 201.878 250.526 191.564 255.995V271.77C191.55 274.965 190.399 278.024 188.364 280.275C186.33 282.526 183.577 283.786 180.71 283.778ZM170.71 262.011V271.769C170.731 274.71 171.794 277.522 173.667 279.593C175.54 281.664 178.072 282.826 180.71 282.826C183.348 282.826 185.88 281.664 187.753 279.593C189.626 277.522 190.689 274.71 190.71 271.769V255.394L190.954 255.265C202.528 249.143 212.353 239.566 219.338 227.596C228.24 212.321 231.942 193.999 229.775 175.945C227.607 157.891 219.713 141.299 207.521 129.171L207.379 129.029V95.3795C207.382 95.1751 207.329 94.9745 207.227 94.8048C207.124 94.6351 206.978 94.5045 206.807 94.4305C206.637 94.3494 206.449 94.3276 206.268 94.3677C206.086 94.4079 205.92 94.5082 205.791 94.6555L201.044 99.8965V94.6425C201.047 94.438 200.993 94.2374 200.891 94.0677C200.789 93.8981 200.642 93.7674 200.471 93.6934C200.301 93.6125 200.112 93.5909 199.931 93.6313C199.749 93.6718 199.583 93.7724 199.453 93.9201L182.185 113.021L181.939 112.935C175.047 110.53 145.03 109.39 138.43 109.39C136.593 109.39 134.715 109.473 132.849 109.636C119.103 110.837 105.994 116.592 95.2039 126.16C78.61 140.826 69.0929 162.661 69.0929 186.067C69.1213 199.765 72.4396 213.205 78.703 224.991C84.9664 236.776 93.9465 246.477 104.71 253.087L104.931 253.222V271.422C104.953 274.363 106.016 277.174 107.889 279.245C109.762 281.316 112.293 282.477 114.931 282.477C117.569 282.477 120.1 281.316 121.973 279.245C123.846 277.174 124.91 274.363 124.932 271.422V261.299L125.437 261.405C132.628 262.914 162.909 263.151 170.227 262.081L170.71 262.011Z" fill="#3F3D56"/>
<path d="M122.871 56.649L75.6247 72.4761C74.122 72.9815 72.8607 74.1312 72.1179 75.6726C71.3752 77.214 71.2117 79.021 71.6634 80.6966C72.1151 82.3723 73.1451 83.7796 74.527 84.6092C75.909 85.4389 77.5299 85.6232 79.0336 85.1215L120.379 71.2681L121.245 70.978C121.42 66.0028 122.631 61.1413 124.782 56.7774C124.512 56.6421 124.224 56.5584 123.929 56.5301C123.572 56.4917 123.213 56.5321 122.871 56.649Z" fill="#F50057"/>
<path d="M78.2165 88.4959C77.5894 88.4941 76.9785 88.2728 76.4704 87.863C75.9622 87.4533 75.5824 86.8759 75.3846 86.2125L72.4302 76.2749C72.3068 75.86 72.258 75.4219 72.2865 74.9859C72.3149 74.5498 72.4202 74.1243 72.5962 73.7336C72.7723 73.3429 73.0156 72.9947 73.3124 72.7089C73.6092 72.4231 73.9535 72.2052 74.3259 72.0677L112.779 57.8623C113.152 57.7248 113.544 57.6703 113.936 57.702C114.327 57.7337 114.708 57.851 115.059 58.0472C115.409 58.2433 115.722 58.5145 115.978 58.8452C116.235 59.176 116.43 59.5598 116.554 59.9748L119.508 69.9123C119.754 70.7297 119.704 71.6216 119.371 72.3991C119.037 73.1767 118.444 73.7788 117.719 74.078C117.683 74.0928 117.648 74.1069 117.611 74.12L79.1589 88.3249C78.855 88.4379 78.5369 88.4956 78.2165 88.4959Z" fill="#2F2E41"/>
<path d="M150.231 39.0005C142.47 39.0039 135.015 42.3734 129.443 48.3959C123.871 54.4184 120.621 62.6212 120.379 71.2681C120.37 71.6058 120.366 71.9482 120.366 72.2906C120.366 78.8748 122.118 85.3111 125.399 90.7856C128.681 96.2601 133.345 100.527 138.802 103.047C144.259 105.566 150.264 106.226 156.057 104.941C161.85 103.657 167.172 100.486 171.348 95.8302C175.525 91.1746 178.369 85.2428 179.522 78.7852C180.674 72.3275 180.083 65.634 177.822 59.5511C175.562 53.4681 171.734 48.2689 166.823 44.6109C161.912 40.953 156.138 39.0005 150.231 39.0005ZM150.231 104.63C142.539 104.621 135.165 101.211 129.726 95.1478C124.287 89.085 121.227 80.8647 121.219 72.2906C121.219 71.8483 121.228 71.4108 121.245 70.978C121.476 64.6433 123.373 58.524 126.699 53.3811C130.024 48.2382 134.633 44.2985 139.952 42.0519C145.27 39.8054 151.064 39.351 156.612 40.7454C162.161 42.1399 167.219 45.3215 171.158 49.8947C175.097 54.4679 177.743 60.231 178.768 66.4673C179.792 72.7035 179.149 79.1379 176.919 84.9702C174.69 90.8026 170.971 95.7756 166.226 99.271C161.481 102.766 155.918 104.63 150.231 104.63Z" fill="#3F3D56"/>
<path d="M175.403 72.2906C175.403 79.7323 172.751 86.8691 168.03 92.1312C163.309 97.3932 156.907 100.349 150.231 100.349C143.555 100.349 137.153 97.3932 132.432 92.1312C127.711 86.8691 125.059 79.7323 125.059 72.2906C125.059 71.4013 125.098 70.5262 125.17 69.6607C125.777 62.4787 128.842 55.8331 133.728 51.1037C138.615 46.3743 144.948 43.9244 151.412 44.2629C157.876 44.6013 163.975 47.702 168.443 52.9212C172.91 58.1403 175.403 65.0769 175.403 72.2906Z" fill="#E6E6E6"/>
<path d="M157.727 74.1549C157.117 73.2606 156.314 72.5524 155.393 72.0956C154.258 71.5621 153.085 71.1326 151.886 70.8116V63.1739C153.728 63.4835 155.456 64.3615 156.874 65.7087L158.265 62.4035C157.465 61.6091 156.546 60.9766 155.551 60.5345C154.448 60.0366 153.29 59.7055 152.108 59.55V55.6789H148.887V59.5881C147.643 59.7438 146.444 60.1929 145.367 60.9054C144.395 61.5468 143.577 62.4409 142.982 63.5115C142.415 64.5563 142.121 65.7572 142.133 66.9785C142.078 68.3019 142.422 69.6079 143.11 70.6879C143.744 71.623 144.581 72.3628 145.542 72.8375C146.696 73.3868 147.889 73.8275 149.109 74.1549V81.4739C146.935 81.2911 144.864 80.3699 143.174 78.8345L141.784 82.1445C142.728 83.0151 143.803 83.6943 144.958 84.1514C146.224 84.6563 147.546 84.9636 148.887 85.0645V88.9024H152.108V84.9932C153.897 84.7752 155.575 83.9177 156.891 82.5487C157.47 81.9293 157.928 81.1826 158.235 80.3558C158.542 79.5289 158.691 78.6401 158.674 77.7454C158.728 76.4642 158.394 75.1999 157.727 74.1549ZM149.109 70.0031C148.324 69.7379 147.595 69.3014 146.963 68.7191C146.713 68.4707 146.515 68.1637 146.383 67.82C146.252 67.4763 146.191 67.1045 146.204 66.7312C146.18 65.8841 146.46 65.0614 146.98 64.4437C147.557 63.7956 148.301 63.3649 149.109 63.2119V70.0031ZM153.909 80.1233C153.364 80.7455 152.656 81.1571 151.886 81.2979V75.0014C152.622 75.2213 153.31 75.6047 153.909 76.1285C154.136 76.3447 154.316 76.6152 154.437 76.9198C154.557 77.2244 154.614 77.5554 154.604 77.8881C154.634 78.7043 154.385 79.5028 153.909 80.1233Z" fill="#F50057"/>
<path d="M79.5878 128.772C78.9283 128.77 78.2875 128.527 77.7649 128.078C77.2423 127.63 76.867 127.002 76.6973 126.291L75.0888 119.505C74.8875 118.652 74.9979 117.744 75.3958 116.982C75.7937 116.22 76.4467 115.664 77.2114 115.438L127.956 100.491C128.722 100.268 129.535 100.393 130.219 100.837C130.903 101.281 131.401 102.009 131.604 102.862L132.967 108.611L132.711 108.633C119.697 109.761 107.245 115.021 96.828 123.79L96.754 123.83L80.3455 128.662C80.0982 128.735 79.8435 128.772 79.5878 128.772Z" fill="#2F2E41"/>
<path d="M71.1835 162.293C65.2309 161.313 59.5379 158.913 54.4926 155.258C51.993 153.449 49.679 151.339 47.5921 148.967C45.5324 146.625 43.5619 143.964 42.5417 140.845C41.5601 137.959 41.6107 134.764 42.683 131.919C43.7407 129.091 45.7611 126.846 48.3013 125.676C50.8567 124.54 53.9441 124.419 56.4311 125.663C57.6161 126.242 58.6417 127.162 59.4023 128.329C59.7559 128.867 60.0177 129.473 60.1746 130.116C60.3203 130.699 60.3335 131.314 60.2132 131.904C60.0674 132.493 59.8102 133.041 59.4589 133.51C59.1076 133.98 58.6704 134.36 58.1765 134.626C57.0895 135.247 55.9117 135.648 54.6985 135.808C53.4782 135.994 51.7254 136.162 50.7444 135.071C50.5425 134.854 50.3836 134.593 50.2783 134.304C50.2045 134.083 50.1793 133.845 50.2047 133.611C50.1904 133.714 50.2639 133.386 50.2597 133.399C50.2442 133.448 50.177 133.566 50.2725 133.385C50.3023 133.325 50.3356 133.267 50.372 133.212C50.3395 133.259 50.2683 133.337 50.3955 133.203C50.5006 133.075 50.6357 132.982 50.7856 132.934C50.8446 132.915 50.9045 132.9 50.9637 132.882C51.1142 132.836 50.8137 132.884 50.9677 132.879C51.0271 132.877 51.0872 132.878 51.1465 132.876C51.2975 132.868 50.9974 132.83 51.1422 132.87C51.1984 132.886 51.2541 132.901 51.3094 132.921C51.4298 132.963 51.2242 132.822 51.3058 132.928C51.4013 133.051 51.2054 132.808 51.314 132.927C51.3681 132.986 51.419 133.049 51.4666 133.115C51.655 133.322 51.9091 133.438 52.1738 133.438C52.4385 133.438 52.6926 133.322 52.8809 133.115C53.0629 132.902 53.1645 132.62 53.1645 132.326C53.1645 132.033 53.0629 131.75 52.8809 131.538C51.8948 130.175 49.9469 130.512 48.9494 131.664C47.6771 133.133 48.1809 135.46 49.4185 136.742C50.8194 138.193 52.8036 138.294 54.6057 138.05C56.1286 137.888 57.6128 137.42 58.9869 136.67C60.3522 135.922 61.42 134.636 61.9836 133.061C62.238 132.221 62.3294 131.33 62.2517 130.447C62.174 129.564 61.929 128.709 61.5329 127.94C59.9418 124.606 56.6472 122.896 53.3908 122.6C51.7142 122.454 50.0282 122.679 48.4304 123.264C46.8325 123.849 45.3546 124.781 44.0821 126.007C41.6293 128.468 40.119 131.886 39.8634 135.554C39.5791 139.356 40.9027 143.049 42.8324 146.118C44.8526 149.236 47.2634 152.015 49.9912 154.371C55.3239 159.117 61.5792 162.405 68.2564 163.973C69.0506 164.156 69.8491 164.313 70.6518 164.443C70.9073 164.512 71.1767 164.47 71.4052 164.325C71.6338 164.18 71.8043 163.944 71.882 163.664C71.9506 163.379 71.9157 163.076 71.785 162.819C71.6543 162.562 71.4382 162.373 71.1835 162.293Z" fill="#3F3D56"/>
<path d="M166.488 113.843C157.767 113.706 149.073 113.953 140.407 114.584C137.444 114.799 134.881 115.966 134.881 117.928C134.881 119.568 137.424 121.489 140.407 121.272C149.069 120.642 157.762 120.395 166.488 120.532C173.602 120.644 173.598 113.955 166.488 113.843Z" fill="#CCCCCC"/>
<path d="M153.598 120.201C152.655 120.201 130.514 120.161 130.514 116.752C130.514 113.343 152.655 113.304 153.598 113.304C154.54 113.304 176.681 113.343 176.681 116.752C176.681 120.161 154.54 120.201 153.598 120.201ZM131.38 116.752C131.986 117.786 140.125 119.249 153.598 119.249C167.071 119.249 175.21 117.786 175.816 116.752C175.21 115.719 167.071 114.255 153.598 114.255C140.125 114.255 131.986 115.719 131.38 116.752Z" fill="#3F3D56"/>
<path d="M223.845 209.822C228.747 209.671 234.847 209.481 239.546 205.654C240.946 204.468 242.095 202.955 242.915 201.222C243.734 199.488 244.204 197.576 244.291 195.618C244.387 192.596 243.407 189.958 241.532 188.193C239.078 185.881 235.494 185.338 231.631 186.604L235.633 154.004L232.695 153.555L227.991 191.88L230.444 190.626C233.288 189.171 237.192 188.431 239.618 190.717C240.214 191.314 240.678 192.057 240.975 192.887C241.271 193.717 241.392 194.612 241.327 195.502C241.256 196.959 240.903 198.381 240.294 199.672C239.685 200.964 238.833 202.093 237.797 202.985C234.14 205.963 229.278 206.347 223.763 206.519L223.845 209.822Z" fill="#3F3D56"/>
<path d="M215.723 156.816H199.753V160.121H215.723V156.816Z" fill="#3F3D56"/>
<path d="M86.8145 143.974C86.1037 143.971 85.4168 143.687 84.8771 143.171C84.3374 142.655 83.98 141.942 83.869 141.159L82.8942 134.225C82.7725 133.353 82.9661 132.462 83.4325 131.749C83.899 131.036 84.6003 130.558 85.3824 130.421L137.232 121.364C138.015 121.229 138.813 121.445 139.453 121.965C140.093 122.485 140.522 123.266 140.645 124.138L141.62 131.073C141.742 131.945 141.548 132.835 141.082 133.549C140.615 134.262 139.914 134.74 139.132 134.877L87.2817 143.933C87.1272 143.96 86.971 143.974 86.8145 143.974Z" fill="#2F2E41"/>
<path d="M65.3564 62.7065C77.3733 62.7065 87.1149 51.8475 87.1149 38.4523C87.1149 25.057 77.3733 14.1981 65.3564 14.1981C53.3395 14.1981 43.5979 25.057 43.5979 38.4523C43.5979 51.8475 53.3395 62.7065 65.3564 62.7065Z" fill="#F50057"/>
<path d="M77.6757 44.7279C78.3711 44.4568 79.0063 44.0228 79.5387 43.4552C79.891 43.0505 80.1596 42.5649 80.3258 42.0323C80.4919 41.4997 80.5516 40.9331 80.5007 40.3721C80.4711 39.9722 80.359 39.5854 80.173 39.2419C79.9871 38.8983 79.7324 38.6074 79.4289 38.3917C78.6415 37.8519 77.601 37.8723 76.5504 38.4152L76.4292 28.9475L75.576 28.9611L75.7185 40.0913L76.368 39.6164C77.1212 39.0667 78.2033 38.6681 78.9819 39.202C79.1744 39.3433 79.3351 39.5322 79.4515 39.754C79.5679 39.9759 79.6368 40.2247 79.6529 40.481C79.6888 40.899 79.6435 41.3206 79.5201 41.7173C79.3967 42.114 79.1981 42.4763 78.9378 42.7798C78.0129 43.8028 76.6438 44.1456 75.0813 44.4591L75.2325 45.3951C76.0631 45.2545 76.8808 45.0312 77.6757 44.7279Z" fill="#2F2E41"/>
<path d="M85.2152 28.283L80.6714 29.05L80.7991 29.9904L85.3429 29.2233L85.2152 28.283Z" fill="#2F2E41"/>
<path d="M70.8731 30.7036L66.3293 31.4707L66.4571 32.411L71.0009 31.6439L70.8731 30.7036Z" fill="#2F2E41"/>
<path d="M79.7353 143.55C78.9528 143.548 78.1893 143.28 77.5465 142.783C76.9037 142.286 76.412 141.582 76.1369 140.765L61.135 95.981C59.3013 90.4885 59.4971 84.4095 61.6794 79.0778C63.8617 73.746 67.8522 69.5969 72.7754 67.5407L84.9737 62.4634C85.4454 62.2657 85.9475 62.174 86.4511 62.1935C86.9547 62.213 87.4499 62.3433 87.9081 62.5769C88.3653 62.8046 88.7771 63.1316 89.1196 63.5387C89.4621 63.9458 89.7283 64.4249 89.9028 64.9481L117.693 123.436C117.873 123.963 117.958 124.525 117.943 125.089C117.928 125.654 117.813 126.209 117.604 126.723C117.396 127.238 117.098 127.701 116.728 128.087C116.359 128.472 115.924 128.773 115.45 128.971L81.0772 143.278C80.6481 143.457 80.1936 143.549 79.7353 143.55Z" fill="#2F2E41"/>
<path d="M81.2727 64.0037L108.846 105.105L90.1883 64.4351C90.0342 63.9606 89.7978 63.5245 89.4925 63.1519C89.1872 62.7792 88.819 62.4772 88.409 62.2632C87.999 62.0492 87.5551 61.9273 87.1029 61.9045C86.6506 61.8818 86.1987 61.9585 85.773 62.1305L81.2727 64.0037Z" fill="#E6E6E6"/>
<path d="M124.932 95.2179L75.6996 91.683C74.9236 91.6272 74.165 91.4017 73.4672 91.0192C72.7694 90.6367 72.146 90.1047 71.6326 89.4537C71.1192 88.8026 70.7259 88.0452 70.4751 87.2247C70.2243 86.4042 70.121 85.5367 70.1709 84.6717C70.2209 83.8066 70.4233 82.9611 70.7664 82.1832C71.1095 81.4054 71.5868 80.7105 72.1708 80.1382C72.7549 79.5659 73.4344 79.1275 74.1705 78.8479C74.9065 78.5684 75.6848 78.4532 76.4608 78.5089L125.693 82.0436C126.056 82.0697 126.411 82.1753 126.738 82.3544C127.065 82.5335 127.357 82.7826 127.597 83.0875C127.838 83.3924 128.022 83.7471 128.14 84.1314C128.257 84.5156 128.305 84.9219 128.282 85.327L127.877 92.3318C127.83 93.15 127.493 93.9136 126.941 94.4549C126.388 94.9961 125.665 95.2706 124.932 95.2179Z" fill="#F50057"/>
<path d="M111.776 97.4841C111.711 97.4841 111.646 97.4818 111.581 97.4772L71.1539 94.5745C70.7625 94.5464 70.38 94.4327 70.028 94.2398C69.676 94.047 69.3616 93.7787 69.1027 93.4503C68.8438 93.122 68.6454 92.74 68.5189 92.3262C68.3924 91.9124 68.3403 91.4748 68.3656 91.0386L69.0569 79.074C69.0821 78.6378 69.1841 78.2113 69.3572 77.819C69.5303 77.4267 69.771 77.0762 70.0656 76.7876C70.3602 76.499 70.7029 76.2779 71.0742 76.137C71.4454 75.996 71.8379 75.9379 72.2293 75.9661L112.656 78.8685C113.446 78.9262 114.183 79.3309 114.706 79.9938C115.229 80.6567 115.494 81.5236 115.444 82.4044L114.753 94.3692C114.715 95.0103 114.511 95.6255 114.167 96.141C113.823 96.6565 113.353 97.0504 112.813 97.2753C112.482 97.4137 112.13 97.4844 111.776 97.4841Z" fill="#2F2E41"/>
<path d="M65.107 22.3236C67.9694 19.5794 71.9002 22.0343 75.1828 21.6046C78.3234 21.1934 80.8032 18.0532 81.4367 14.7171C82.1758 10.8251 80.3635 6.92575 77.6923 4.49911C74.7666 1.84133 70.8865 1.07835 67.2096 1.57006C62.9954 2.13361 59.1414 4.32331 55.6831 6.97186C52.3451 9.44917 49.2754 12.3487 46.5353 15.6126C44.0817 18.6333 42.0028 22.2339 41.339 26.2986C40.7357 29.9926 41.1964 34.0861 43.1554 37.2154C44.1942 38.8194 45.5863 40.0978 47.1974 40.9274C48.8773 41.8469 50.6692 42.5043 52.2967 43.5439C54.7574 45.1158 57.149 48.3751 56.3782 51.767C56.213 52.5079 55.8868 53.1922 55.4285 53.7596C54.8779 54.441 53.8847 53.5406 54.4367 52.8574C55.4064 51.6575 55.3682 50.0573 54.8515 48.6247C54.237 47.0104 53.1489 45.6766 51.7654 44.8419C50.0618 43.7562 48.181 43.086 46.435 42.0971C44.7638 41.1937 43.3131 39.8536 42.2064 38.1908C40.1166 34.9536 39.4915 30.7406 39.9655 26.8432C40.4784 22.6256 42.4223 18.7931 44.8593 15.5814C47.5114 12.0862 50.769 9.12763 54.097 6.46975C57.668 3.61781 61.6133 1.2067 65.9789 0.334634C69.7633 -0.421308 73.8652 0.0440975 77.1745 2.34294C80.2634 4.48877 82.6322 8.18001 82.8677 12.3046C82.9523 14.1813 82.5867 16.0492 81.8087 17.7161C81.0306 19.383 79.8681 20.7887 78.4408 21.7885C76.9763 22.7654 75.2736 23.2051 73.5729 23.0456C71.7547 22.9159 69.9348 22.2953 68.1051 22.4676C67.2771 22.5236 66.488 22.879 65.8575 23.4798C65.2321 24.0794 64.4868 22.9183 65.107 22.3236Z" fill="#2F2E41"/>
<path d="M315.492 284H0.507986C0.373514 284 0.244685 283.94 0.149736 283.834C0.054787 283.727 0.00146484 283.584 0.00146484 283.434C0.00146484 283.284 0.054787 283.14 0.149736 283.034C0.244685 282.928 0.373514 282.868 0.507986 282.867H315.492C315.627 282.867 315.756 282.927 315.851 283.033C315.946 283.14 316 283.284 316 283.434C316 283.584 315.946 283.728 315.851 283.834C315.756 283.94 315.627 284 315.492 284Z" fill="#3F3D56"/>
</g>
<defs>
<clipPath id="clip0_0_231">
<rect width="316" height="284" fill="white"/>
</clipPath>
</defs>
</svg>
