<svg width="249" height="244" viewBox="0 0 249 244" fill="none" xmlns="http://www.w3.org/2000/svg">
<g clip-path="url(#clip0_0_313)">
<path d="M6.59302 243.462C6.59302 243.76 6.76861 244 6.98727 244H248.606C248.824 244 249 243.76 249 243.462C249 243.163 248.824 242.923 248.606 242.923H6.98727C6.76861 242.923 6.59302 243.163 6.59302 243.462Z" fill="#3F3D58"/>
<path d="M83.963 43.0399H6.4704C3.51515 43.0399 1.10986 39.756 1.10986 35.7211C1.10986 31.6863 3.51515 28.4023 6.4704 28.4023H83.963C86.9182 28.4023 89.3235 31.6863 89.3235 35.7211C89.3235 39.756 86.9182 43.0399 83.963 43.0399ZM6.4704 29.307C3.87959 29.307 1.77248 32.1838 1.77248 35.7211C1.77248 39.2584 3.87959 42.1353 6.4704 42.1353H83.963C86.5538 42.1353 88.6609 39.2584 88.6609 35.7211C88.6609 32.1838 86.5538 29.307 83.963 29.307H6.4704Z" fill="#E2E3E4"/>
<path d="M83.9631 128.69H6.47052C3.60472 128.69 1.27563 125.51 1.27563 121.597C1.27563 117.685 3.60472 114.505 6.47052 114.505H83.9631C86.8289 114.505 89.158 117.685 89.158 121.597C89.158 125.51 86.8289 128.69 83.9631 128.69Z" fill="#F50057"/>
<path d="M58.5684 14.1853H5.19489C2.32908 14.1853 0 11.0054 0 7.09266C0 3.17993 2.32908 0 5.19489 0H58.5684C61.4342 0 63.7632 3.17993 63.7632 7.09266C63.7632 11.0054 61.4342 14.1853 58.5684 14.1853Z" fill="#E2E3E4"/>
<path d="M83.963 71.6639H6.4704C3.51515 71.6639 1.10986 68.3799 1.10986 64.345C1.10986 60.3102 3.51515 57.0262 6.4704 57.0262H83.963C86.9182 57.0262 89.3235 60.3102 89.3235 64.345C89.3235 68.3799 86.9182 71.6639 83.963 71.6639ZM6.4704 57.9309C3.87959 57.9309 1.77248 60.8078 1.77248 64.345C1.77248 67.8823 3.87959 70.7592 6.4704 70.7592H83.963C86.5538 70.7592 88.6609 67.8823 88.6609 64.345C88.6609 60.8078 86.5538 57.9309 83.963 57.9309H6.4704Z" fill="#E2E3E4"/>
<path d="M83.963 100.292H6.4704C3.51515 100.292 1.10986 97.0083 1.10986 92.9735C1.10986 88.9386 3.51515 85.6547 6.4704 85.6547H83.963C86.9182 85.6547 89.3235 88.9386 89.3235 92.9735C89.3235 97.0083 86.9182 100.292 83.963 100.292ZM6.4704 86.5593C3.87959 86.5593 1.77248 89.4362 1.77248 92.9735C1.77248 96.5108 3.87959 99.3876 6.4704 99.3876H83.963C86.5538 99.3876 88.6609 96.5108 88.6609 92.9735C88.6609 89.4362 86.5538 86.5593 83.963 86.5593H6.4704Z" fill="#E2E3E4"/>
<path d="M3.80667 23.1461H24.1158C24.5995 23.1461 24.9937 23.6799 24.9937 24.3448C24.9937 25.0052 24.5995 25.5435 24.1158 25.5435H3.80667C3.32297 25.5435 2.92871 25.0098 2.92871 24.3448C2.92871 23.6844 3.32297 23.1461 3.80667 23.1461Z" fill="#E2E3E4"/>
<path d="M3.80667 52.4486H24.1158C24.5995 52.4486 24.9937 52.9823 24.9937 53.6427C24.9937 54.3031 24.5995 54.8414 24.1158 54.8414H3.80667C3.32297 54.8414 2.92871 54.3077 2.92871 53.6473C2.92871 52.9868 3.32297 52.4486 3.80667 52.4486Z" fill="#E2E3E4"/>
<path d="M3.80667 81.7555H24.1158C24.5995 81.7555 24.9937 82.2893 24.9937 82.9542C24.9937 83.6146 24.5995 84.1484 24.1158 84.1484H3.80667C3.32297 84.1484 2.92871 83.6146 2.92871 82.9497C2.92871 82.2893 3.32297 81.7555 3.80667 81.7555Z" fill="#E2E3E4"/>
<path d="M148.121 59.8262L140.713 63.1554V48.5946H147.435L148.121 59.8262Z" fill="#9F616A"/>
<path d="M141.63 52.625C145.707 52.625 149.012 48.1129 149.012 42.5469C149.012 36.9809 145.707 32.4688 141.63 32.4688C137.554 32.4688 134.249 36.9809 134.249 42.5469C134.249 48.1129 137.554 52.625 141.63 52.625Z" fill="#9F616A"/>
<path d="M143.658 41.5472C142.422 41.4975 141.61 39.7921 141.13 38.2361C140.649 36.6801 140.156 34.8933 139.01 34.251C138.072 33.7263 136.419 37.2771 135.68 36.3318C134.908 35.3457 135.66 30.284 136.478 29.3748C137.297 28.4656 138.416 28.2892 139.47 28.2213C142.041 28.0585 144.628 28.3435 147.15 29.0627C148.71 29.506 150.314 30.1754 151.44 31.7134C152.865 33.6675 153.229 36.6122 153.332 39.3669C153.438 42.185 153.319 45.1343 152.315 47.5995C151.311 50.0647 149.21 51.8831 147.196 51.2544C146.994 49.7617 147.199 48.2282 147.279 46.7084C147.355 45.1931 147.276 43.5556 146.596 42.3478C145.921 41.1401 144.469 40.6606 143.681 41.7327" fill="#2F2E43"/>
<path d="M152.739 45.0393C153.478 44.302 154.362 43.6823 155.27 43.836C156.251 43.9989 157.082 45.1026 157.334 46.4098C157.586 47.7171 157.304 49.1555 156.695 50.2231C156.088 51.2906 155.184 51.9962 154.23 52.349C153.677 52.5526 153.07 52.6385 152.543 52.3309C151.768 51.8741 151.347 50.5216 151.652 49.445" fill="#2F2E43"/>
<path d="M124.492 139.863C123.998 143.174 124.903 146.2 126.506 146.621C128.11 147.041 129.809 144.694 130.3 141.383C130.508 140.062 130.475 138.696 130.204 137.393L136.309 85.4873L128.673 83.5241L125.724 136.221C125.098 137.289 124.677 138.537 124.492 139.867V139.863Z" fill="#9F616A"/>
<path d="M140.633 56.4743H135.421C131.737 57.2388 130.737 59.9212 129.899 64.8788C128.62 72.4419 126.986 82.5109 127.311 82.6602C127.831 82.8954 136.704 88.5948 141.226 87.2921L140.633 56.4743Z" fill="#E2E3E4"/>
<path d="M145.672 221.808H138.735V235.247H145.672V221.808Z" fill="#9F616A"/>
<path d="M131.979 243.38C131.25 243.38 130.601 243.358 130.111 243.294C128.269 243.064 126.509 241.205 125.625 240.119C125.227 239.63 125.101 238.852 125.307 238.183C125.456 237.703 125.751 237.342 126.119 237.201L130.989 235.302L138.874 228.037L138.963 228.254C138.996 228.336 139.772 230.24 140.03 231.525C140.129 232.013 140.103 232.42 139.954 232.737C139.851 232.954 139.705 233.081 139.589 233.153C139.732 233.356 140.179 233.773 141.557 234.071C143.568 234.505 143.993 231.66 144.009 231.543L144.022 231.448L144.082 231.393C145.039 230.552 145.629 230.168 145.831 230.249C145.957 230.299 146.169 230.389 146.742 238.138C146.799 238.382 147.2 240.164 146.928 241.869C146.633 243.724 140.696 243.086 139.507 242.942C139.474 242.946 135.027 243.38 131.983 243.38H131.979Z" fill="#2F2E43"/>
<path d="M165.427 211.25L159.54 216.262L164.749 227.665L170.635 222.653L165.427 211.25Z" fill="#9F616A"/>
<path d="M157.609 241.539C156.794 241.539 156.045 241.404 155.512 241.277C154.988 241.15 154.578 240.58 154.491 239.866C154.432 239.35 154.541 238.83 154.8 238.445L158.195 233.316L162.072 221.455L162.231 221.573C162.29 221.618 163.685 222.672 164.404 223.577C164.679 223.921 164.815 224.287 164.808 224.663C164.805 224.925 164.732 225.133 164.659 225.282C164.858 225.355 165.398 225.382 166.684 224.64C168.559 223.559 167.817 220.836 167.783 220.723L167.757 220.632L167.787 220.546C168.274 219.14 168.622 218.389 168.827 218.312C168.956 218.262 169.168 218.185 172.657 224.35C172.799 224.513 173.83 225.739 174.261 227.381C174.728 229.168 169.443 232.918 168.38 233.651C168.347 233.687 162.817 239.174 160.544 240.734C159.643 241.354 158.576 241.544 157.606 241.544L157.609 241.539Z" fill="#2F2E43"/>
<path d="M150.781 109.425H131.357L129.594 134.096L137.307 225.251H147.223L143.257 172.603L159.342 220.135L168.155 211.712L155.595 167.338C155.595 167.338 160.081 128.681 156.556 119.051C153.031 109.425 150.781 109.425 150.781 109.425Z" fill="#2F2E43"/>
<path d="M160.445 110.927H129.594L138.851 56.4743H152.292L160.445 110.927Z" fill="#E2E3E4"/>
<path d="M163.222 139.863C163.715 143.174 162.811 146.2 161.207 146.621C159.604 147.041 157.904 144.694 157.414 141.383C157.205 140.062 157.238 138.696 157.51 137.393L151.404 85.4873L159.04 83.5241L161.989 136.221C162.615 137.289 163.036 138.537 163.222 139.867V139.863Z" fill="#9F616A"/>
<path d="M147.08 56.4743H152.292C155.976 57.2388 156.976 59.9212 157.815 64.8788C159.094 72.4419 160.727 82.5109 160.402 82.6602C159.882 82.8954 151.01 88.5948 146.487 87.2921L147.08 56.4743Z" fill="#E2E3E4"/>
</g>
<defs>
<clipPath id="clip0_0_313">
<rect width="249" height="244" fill="white"/>
</clipPath>
</defs>
</svg>
